<svg t="1721913249501" class="icon" viewBox="0 0 1024 1024" version="1.1" xmlns="http://www.w3.org/2000/svg" p-id="1726" width="200" height="200"><path d="M383.189094 176.51189l-41.045308-11.69066L377.045098 42.66664H319.9998a106.7946 106.7946 0 0 0-106.6666 106.6666v21.33332H170.66656V149.33324a149.52524 149.52524 0 0 1 149.33324-149.33324h85.33328a21.33332 21.33332 0 0 1 20.522654 27.17865z" fill="" p-id="1727"></path><path d="M298.66648 575.99964H149.33324a106.303934 106.303934 0 0 1-103.487935-80.874616A103.551935 103.551935 0 0 1 42.66664 469.33304v-85.33328a85.567947 85.567947 0 0 1 63.99996-82.645282V213.3332a63.99996 63.99996 0 0 1 63.99996-63.99996h234.66652a149.52524 149.52524 0 0 1 149.33324-149.33324h85.33328a21.33332 21.33332 0 0 1 20.522654 27.17865L618.66628 173.653225V490.66636h-42.66664V170.66656a21.482653 21.482653 0 0 1 0.810666-5.84533L611.711618 42.66664H554.66632a106.7946 106.7946 0 0 0-106.6666 106.6666v21.33332a21.33332 21.33332 0 0 1-21.33332 21.33332H170.66656a21.33332 21.33332 0 0 0-21.33332 21.33332v106.6666a21.33332 21.33332 0 0 1-21.33332 21.33332 42.66664 42.66664 0 0 0-42.66664 42.66664v85.33328a62.207961 62.207961 0 0 0 1.877332 15.35999A63.80796 63.80796 0 0 0 149.33324 533.333h149.33324z" fill="" p-id="1728"></path><path d="M597.33296 725.33288H341.33312a63.99996 63.99996 0 0 1-63.99996-63.99996v-127.99992a63.167961 63.167961 0 0 1 11.007993-35.967978A63.99996 63.99996 0 0 1 341.33312 469.33304h277.33316v42.66664H341.33312a21.33332 21.33332 0 0 0-17.770656 9.429327A20.863987 20.863987 0 0 0 319.9998 533.333v127.99992a21.33332 21.33332 0 0 0 21.33332 21.33332h255.99984zM191.99988 725.33288H63.99996a63.99996 63.99996 0 0 1-63.99996-63.99996v-127.99992a63.99996 63.99996 0 0 1 63.99996-63.99996v42.66664a21.33332 21.33332 0 0 0-21.33332 21.33332v127.99992a21.33332 21.33332 0 0 0 21.33332 21.33332h127.99992zM666.559583 1023.99936a56.575965 56.575965 0 0 1-40.362641-16.661323l-76.159952-76.159952a57.301298 57.301298 0 0 1 0-80.746617l32.853312-32.831979 30.165315 30.165314-32.853313 32.853313a14.634658 14.634658 0 0 0 0 20.394654l76.159952 76.159953a14.933324 14.933324 0 0 0 20.373321 0l76.181286-76.159953 30.165314 30.165315-76.159952 76.159952a56.661298 56.661298 0 0 1-40.362642 16.661323z" fill="" p-id="1729"></path><path d="M853.546133 1006.164704H853.3328a63.530627 63.530627 0 0 1-45.269305-19.007988L675.903578 853.3328H277.33316a106.7946 106.7946 0 0 1-106.6666-106.6666v-191.99988h42.66664v191.99988a63.99996 63.99996 0 0 0 63.99996 63.99996h407.466412a21.33332 21.33332 0 0 1 15.167991 6.399996l138.431913 140.117246a20.991987 20.991987 0 0 0 14.933324 6.399996 21.07732 21.07732 0 0 0 14.933324-6.207996L972.500726 853.3328l-70.250623-70.250623A21.33332 21.33332 0 0 1 895.99944 767.99952V490.66636a62.207961 62.207961 0 0 0-1.877332-15.35999A63.80796 63.80796 0 0 0 831.99948 426.6664H597.33296v-42.66664h234.66652a106.303934 106.303934 0 0 1 103.487935 80.874616A103.551935 103.551935 0 0 1 938.66608 490.66636v268.501166l79.082617 79.082617a21.33332 21.33332 0 0 1 0 30.165314l-119.039925 119.039926a63.381294 63.381294 0 0 1-45.162639 18.709321zM255.99984 405.33308a21.33332 21.33332 0 0 1-15.082657-6.250663l-42.66664-42.66664A21.33332 21.33332 0 0 1 213.3332 319.9998h85.33328a21.33332 21.33332 0 0 1 15.082657 36.415977l-42.66664 42.66664A21.33332 21.33332 0 0 1 255.99984 405.33308zM447.99972 298.66648h-42.66664a21.33332 21.33332 0 0 0-42.66664 0h-42.66664a63.99996 63.99996 0 0 1 127.99992 0zM277.33316 298.66648h-42.66664a21.33332 21.33332 0 0 0-42.66664 0H149.33324a63.99996 63.99996 0 0 1 127.99992 0zM511.99968 170.66656h-42.66664c0-59.733296 37.482643-106.6666 85.33328-106.6666v42.66664c-23.125319 0-42.66664 29.311982-42.66664 63.99996z" fill="" p-id="1730"></path><path d="M277.33316 938.66608c-94.101275 0-170.66656-67.007958-170.66656-149.33324h42.66664c0 58.815963 57.407964 106.6666 127.99992 106.6666zM831.99948 831.99948v-42.66664c41.301308 0 63.99996-16.021323 63.99996-21.33332h42.66664c0 36.479977-45.845305 63.99996-106.6666 63.99996zM917.33276 490.66636v-42.66664c24.298651 0 59.519963-54.0373 63.594627-169.514561C914.388762 285.525155 853.3328 325.546463 853.3328 405.33308h-42.66664c0-100.479937 78.933284-170.66656 191.99988-170.66656a21.33332 21.33332 0 0 1 21.33332 21.33332c0 140.351912-42.879973 234.66652-106.6666 234.66652zM874.66612 234.66652h-42.66664c0-48.63997 64.213293-85.33328 149.33324-85.33328v42.66664c-65.109293 0-106.6666 25.279984-106.6666 42.66664zM255.99984 554.66632a85.33328 85.33328 0 0 1-85.33328-85.33328v-63.99996a21.33332 21.33332 0 0 1 21.33332-21.33332h127.99992a21.33332 21.33332 0 0 1 21.33332 21.33332v63.99996a85.610613 85.610613 0 0 1-18.794655 53.482633A85.20528 85.20528 0 0 1 255.99984 554.66632z m-42.66664-127.99992v42.66664a42.66664 42.66664 0 1 0 85.33328 0v-42.66664z" fill="" p-id="1731"></path><path d="M234.66652 405.33308h42.66664v63.99996h-42.66664z" fill="" p-id="1732"></path></svg>